<?xml version="1.0" encoding="UTF-8"?><svg id="Capa_1" xmlns="http://www.w3.org/2000/svg" viewBox="0 0 682.01 160"><defs><style>.cls-1{fill:#fff;}</style></defs><g id="hrJSCA"><path class="cls-1" d="m247.6,54.18c-.33-.39-.41-.55-.06-1.04,1.25-1.76,1.91-3.79,1.8-5.92-.12-2.16-.76-4.21-2.12-6.02-2.03-2.71-4.67-4.22-8.05-4.26-5.46-.06-10.92-.02-16.38-.02-1.45,0-1.64.19-1.64,1.67,0,5.53,0,11.06,0,16.59v16.05c0,1.98.04,2.02,1.94,1.94.22,0,.43,0,.65,0,5.75,0,11.5-.06,17.25.02,2.99.04,5.17-1.42,7.07-3.45,1.32-1.4,2.03-3.13,2.54-5,.61-2.27.25-4.4-.45-6.52-.51-1.54-1.52-2.81-2.54-4.05Zm-16.54-10.08c2,.12,4.01-.28,5.99.22,1.62.4,2.52,1.56,2.72,3.11.18,1.37-.56,2.48-1.68,3.26-.64.44-1.41.57-2.2.58-1.58.02-3.16.03-4.75.09-.52.02-.45-.29-.46-.58-.01-1.05,0-2.09,0-3.14,0-.97,0-1.95,0-2.92,0-.26-.12-.64.36-.61Zm4.95,22.15c-1.48-.1-2.96-.04-4.44,0-.66.01-.9-.23-.88-.89.04-1.12,0-2.24,0-3.36,0-1.12.03-2.24-.01-3.36-.02-.52.14-.67.66-.67,2.1.03,4.19.01,6.29.01,1.5,0,3.14,2.01,3.3,3.3.41,3.26-2.31,5.14-4.93,4.97Z"/><path class="cls-1" d="m208.29,81.86c.01-.25.03-.5.03-.76,0-18.38,0-36.76,0-55.13,0-.25-.02-.5-.03-.76.01-5.15.02-10.31.05-15.46,0-.47-.12-.61-.6-.61-4.36.03-8.73.03-13.09.05-.32-.01-.17.27-.25.4,0,.36,0,.72,0,1.08.01.43.03.87.03,1.3,0,43.69,0,87.39,0,131.08,0,.43.02.87.03,1.3h.1s.09-.03.09-.03c0-20.82,0-41.65,0-62.47V25.21h0c0,18.88,0,37.76,0,56.64h0c0,20.82,0,41.65,0,62.47.39-.25.82-.18,1.24-.18,3.76,0,7.52-.04,11.28.02.93.01,1.18-.18,1.18-1.15-.03-20.03-.03-40.05-.03-60.08,0-.36-.02-.72-.03-1.08Z"/><path class="cls-1" d="m663.66,36.28c-10.51-.32-19.7,8.53-19.24,18.92-.29,10.76,8.72,18.69,18.33,18.79,10.97.12,18.65-8.18,19.22-17.44.75-12.15-8.78-19.98-18.31-20.27Zm8.58,20.62c-.72,3.38-2.4,5.92-5.67,7.27-1.52.62-3.14.67-4.72.52-2.05-.2-3.79-1.14-5.24-2.63-1.71-1.76-2.65-4.11-2.66-6.87-.04-3.69,1.52-6.6,4.59-8.54,1.64-1.03,3.56-1.32,5.62-1.08,3.73.43,6.14,2.46,7.5,5.76.72,1.74.99,3.61.57,5.57Z"/><path class="cls-1" d="m516.72,106.08c1.05-12.3-9.25-21.08-18.8-20.54-10.62-.36-18.21,8.75-18.8,17.01-.9,12.71,9.18,20.12,17.5,20.53,11.97.58,19.37-8.58,20.09-17Zm-28.01-2.29c.17-4.81,3.68-9.27,9.25-9.13,5.2-.12,9.4,4.1,9.18,10.11-.19,4.98-3.93,9.28-9.44,9.18-4.86-.09-9.2-4-8.99-10.16Z"/><path class="cls-1" d="m283.58,94.91c-1.69-2.8-4.03-4.95-6.91-6.57-2.46-1.38-5.08-2.25-7.86-2.33-4.41-.13-8.83-.04-13.25-.03-1.32,0-1.42.1-1.42,1.43,0,5.61,0,11.21,0,16.82v16.6c0,1.76.07,1.83,1.81,1.83,4.09,0,8.18.03,12.27-.01,1.8-.02,3.57-.46,5.25-1,3.6-1.16,6.6-3.25,8.94-6.27,1.23-1.59,2.17-3.32,2.79-5.22.93-2.88,1.23-5.78.7-8.82-.4-2.31-1.14-4.45-2.32-6.41Zm-9.59,15.82c-1.92,1.85-4.22,2.85-6.92,2.81-1.08-.02-2.53.38-3.14-.16-.69-.62-.2-2.1-.21-3.2-.03-2.06,0-4.12,0-6.18,0-2.85,0-5.71,0-8.56,0-.44-.07-.87.64-.79,2.77.32,5.64.16,8.1,1.88,2.42,1.69,3.83,3.93,4.07,6.87.23,2.8-.45,5.34-2.52,7.34Z"/><path class="cls-1" d="m584.42,40.46c-3.38-2.43-7.11-3.69-11.34-3.56-3.9.12-7.81.03-11.72.03-1.32,0-1.42.1-1.43,1.42,0,5.6,0,11.21,0,16.81s.03,11.28-.03,16.92c-.01,1.08.38,1.31,1.35,1.33,5.05.13,10.09-.31,15.14-.24.18,0,.37.01.54-.03,2.62-.71,5.18-1.59,7.39-3.23,2.78-2.06,4.87-4.62,6.26-7.83,1.49-3.44,1.62-7,.98-10.53-.83-4.6-3.32-8.33-7.16-11.09Zm-7.11,22.91c-2.27,1.29-4.91,1.23-7.48,1.12-.55-.02-.33-.48-.33-.74-.02-2.93-.01-5.86-.01-8.79s.02-5.71-.01-8.57c0-.59.14-.75.76-.8,1.81-.14,3.64.05,5.29.54,3.32.98,5.76,3.19,6.53,6.71,1.02,4.66-.61,8.18-4.75,10.53Z"/><path class="cls-1" d="m520.67,68.55c-1.61-2.96-3.2-5.94-4.78-8.92-.09-.17-.43-.54,0-.69.54-.19.84-.65,1.25-.97,2.72-2.16,4.27-5.01,4.54-8.46.22-2.83-.64-5.4-2.35-7.66-2.31-3.07-5.37-4.84-9.25-4.89-5.35-.07-10.71.01-16.06-.04-1.28-.01-1.64.23-1.64,1.69.01,5.53,0,11.06,0,16.59v11.5c0,1.81-.02,3.62,0,5.42.01.84.26,1.45,1.32,1.08.23-.08.5-.01.76-.01,2.21,0,4.41-.04,6.62.02.74.02.88-.23.87-.91-.04-2.64-.02-5.28-.01-7.92,0-1.01-.35-2.36.16-2.93.59-.66,1.97-.12,3-.21.63-.06.95.23,1.23.77,1.85,3.54,3.74,7.06,5.59,10.59.27.52.61.64,1.19.63,2.78-.06,5.57-.07,8.35,0,.38.01.8.13,1.01-.15.23-.3.22-.84.01-1.14-.75-1.06-1.22-2.26-1.84-3.39Zm-9.32-18.1c-.69,1.94-2.02,2.94-4.03,2.97-1.55.03-3.11-.02-4.66.02-.56.01-.75-.13-.73-.71.04-1.26.01-2.53.01-3.79,0-1.26,0-2.53,0-3.79,0-.26-.12-.64.36-.61,2.07.12,4.19-.34,6.22.24,2.53.72,3.71,3.21,2.82,5.68Z"/><path class="cls-1" d="m246.83,122.66c1.06,0,1.67-.64,1.67-1.74,0-1.77,0-3.54,0-5.31,0-1.27-.36-1.63-1.66-1.63-5.06,0-10.13-.02-15.19.02-.72,0-1.01-.11-.97-.91.07-1.41.09-2.82,0-4.23-.06-.87.27-.98,1.03-.97,3.65.04,7.31.02,10.96.02,1.29,0,1.71-.43,1.71-1.73,0-1.27,0-2.53,0-3.8,0-1.53-.55-2.06-2.13-2.07-3.55,0-7.09-.03-10.64.02-.78.01-.97-.21-.93-.95.07-1.26.07-2.53,0-3.79-.05-.78.21-.94.95-.93,4.78.04,9.55.02,14.33.02,1.53,0,2.11-.57,2.11-2.08,0-1.63,0-3.25,0-4.88,0-1.31-.41-1.72-1.7-1.72-7.71,0-15.41,0-23.12,0-1.84,0-2.11.26-2.11,2.07,0,5.42,0,10.85,0,16.27s0,11.06,0,16.59c0,1.3.43,1.74,1.71,1.74,8,0,15.99,0,23.99,0Z"/><path class="cls-1" d="m313.87,87.77c0,7.01,0,14.03,0,21.04,0,.35.02.7-.09,1.06-.75,2.55-2.11,4.32-5.01,4.62-1.8.18-3.33-.12-4.73-1.29-1.64-1.37-2.06-3.28-2.08-5.2-.08-6.83-.03-13.67-.03-20.5,0-1.08-.41-1.51-1.45-1.52-2.24,0-4.49,0-6.73,0-.93,0-1.4.44-1.38,1.37.14,7.65-.25,15.3.21,22.94.22,3.75,1.63,6.87,4.48,9.37,2.54,2.23,5.62,3.1,8.84,3.39,2.83.26,5.69.11,8.43-.83,2.1-.72,4.1-1.69,5.59-3.37,2.4-2.71,3.54-5.91,3.51-9.55-.03-3.43,0-6.87,0-10.3,0-3.9-.02-7.81.01-11.71,0-.98-.36-1.34-1.33-1.32-2.13.04-4.27.01-6.4.01-1.55,0-1.83.28-1.83,1.78Z"/><path class="cls-1" d="m281.17,36.93c-7.89,0-15.77.02-23.66-.02-1.18,0-1.63.11-1.63,1.7.01,5.53,0,11.06,0,16.59v15.73q0,2.25,2.21,2.25c7.85,0,15.7,0,23.55,0q1.39,0,1.39-1.44c0-1.77-.05-3.54.02-5.31.05-1.23-.37-1.52-1.48-1.51-5.1.04-10.2,0-15.3.03-.64,0-.88-.11-.85-.82.06-1.44.06-2.89,0-4.34-.03-.74.14-.97.93-.96,3.62.05,7.23.02,10.85.02,1.3,0,1.7-.42,1.7-1.72,0-1.48-.04-2.97.01-4.45.03-.99-.56-1.4-1.35-1.41-3.76-.05-7.53-.07-11.29.02-.8.02-.86-.16-.85-.8.03-1.45.06-2.89-.01-4.34-.04-.79.16-1.02.99-1.01,4.96.05,9.91,0,14.87.04.97,0,1.36-.33,1.33-1.32-.05-1.84-.01-3.69-.01-5.53,0-1.31-.1-1.41-1.43-1.41Z"/><path class="cls-1" d="m397.93,121.03c-1.5-4-3.03-7.99-4.57-11.98-1.73-4.47-3.47-8.94-5.22-13.41-1.08-2.78-2.14-5.57-3.28-8.32-.29-.71-.64-1.44-1.76-1.37-1.91.11-3.83.03-5.75.03-.78,0-1.28.28-1.62,1.07-.35.82-.66,1.66-1.01,2.48-1.24,2.9-2.34,5.86-3.46,8.8-1.19,3.14-2.42,6.27-3.57,9.43-1.63,4.44-3.45,8.8-5.16,13.21-.49,1.26-.16,1.68,1.21,1.68,2.24.01,4.49-.01,6.73.01.58,0,.95-.16,1.17-.7.57-1.41,1.22-2.8,1.7-4.24.26-.76.52-1.17,1.42-1.17,3.87.02,7.73-.02,11.6-.07.29,0,.41.09.46.27.42,1.65,1.2,3.17,1.76,4.77.25.72.75,1.14,1.56,1.13,1.12,0,2.24,0,3.37,0s2.17,0,3.26,0c1.34,0,1.64-.37,1.17-1.63Zm-14.73-12.47c-2.16-.01-4.33,0-6.55,0,1.14-3.5,2.25-6.95,3.39-10.47.86.47.74,1.33.98,1.97.95,2.59,1.77,5.23,2.68,7.84.21.59.01.67-.5.67Z"/><path class="cls-1" d="m554.29,66.7c0-1.46-.31-1.77-1.74-1.77-5.07,0-10.13-.02-15.2.02-.71,0-.92-.18-.89-.89.06-1.44.06-2.89,0-4.34-.03-.72.19-.89.89-.88,3.66.04,7.31.02,10.97.02,1.2,0,1.83-.61,1.84-1.81.01-1.37,0-2.75,0-4.12,0-1.18-.35-1.63-1.55-1.64-3.76-.04-7.53-.07-11.29.03-.8.02-.86-.16-.85-.8.03-1.41.06-2.82,0-4.23-.04-.86.24-1.12,1.11-1.11,4.89.04,9.77.02,14.66.02,1.24,0,1.61-.35,1.62-1.6.02-1.77,0-3.54,0-5.32,0-.87-.45-1.33-1.31-1.33-8.03,0-16.07.02-24.1.03-1.18-.05-1.52.25-1.52,1.41,0,11.19,0,22.38,0,33.57,0,1.02.44,1.41,1.52,1.4,4.02.01,8.03.06,12.05.03,4.22-.03,8.43-.15,12.65-.2.82-.01,1.16-.35,1.15-1.17-.03-1.77,0-3.54,0-5.32Z"/><path class="cls-1" d="m360.8,51.37c1.75,2.88,4.54,4.4,7.48,5.75,2.33,1.07,4.92,1.52,7.07,3.02.71.5,1.32,1.18,1.23,1.97-.13,1.13-.52,2.24-1.77,2.77-1.96.84-3.87.54-5.72-.27-1.67-.72-3.09-1.84-4.42-3.08-.67-.62-1.38-.89-2.14-.14-1.33,1.31-2.62,2.66-4.01,3.91-.84.75-.67,1.46-.07,2.11,3.08,3.33,6.74,5.59,11.33,6.2,3.66.49,7.13.08,10.44-1.69,3.06-1.64,5.17-4.02,5.93-7.39.61-2.71.45-5.4-1.13-7.84-2.09-3.22-5.49-4.38-8.82-5.66-2.07-.79-4.27-1.22-6.15-2.51-.8-.55-1.03-1.2-1-2.03.03-.83.43-1.45,1.26-1.76,1.23-.45,2.46-.58,3.74-.3,1.77.38,3.17,1.42,4.51,2.57.9.77,1.45.79,2.27-.05,1.14-1.19,2.25-2.41,3.4-3.6,1.09-1.13,1.13-1.63-.05-2.73-3.28-3.06-7.16-4.62-12.37-4.57-1.21,0-3.07.26-4.92.85-3.84,1.21-6.48,3.46-7.26,7.57-.46,2.46-.12,4.77,1.18,6.91Z"/><path class="cls-1" d="m473.72,100.49c1.65-4.34,3.34-8.67,4.99-13.02.43-1.14.16-1.49-1.07-1.49-2.42,0-4.85.05-7.27-.03-1.08-.04-1.56.52-1.86,1.38-.52,1.47-1.03,2.94-1.52,4.42-1.32,4.03-2.6,8.07-3.93,12.09-.56,1.71-1.19,3.4-1.83,5.21-.51-1.48-.97-2.82-1.43-4.17-.99-2.92-1.99-5.85-2.97-8.77-.9-2.7-1.75-5.42-2.7-8.1-.27-.77-.35-1.96-1.42-2.01-2.78-.11-5.57-.06-8.35-.01-.52,0-1.04.31-.73,1.07.28.67.48,1.36.73,2.04,1.16,3.04,2.34,6.08,3.49,9.13,1.11,2.96,2.12,5.96,3.32,8.87.99,2.4,1.91,4.82,2.84,7.24.87,2.26,1.75,4.51,2.63,6.77.41,1.05,1.02,1.67,2.31,1.55,1.47-.14,2.97-.09,4.45-.01,1.16.06,1.86-.45,2.27-1.44.81-1.91,1.62-3.83,2.36-5.77,1.91-4.99,3.77-9.99,5.66-14.98Z"/><path class="cls-1" d="m294.62,69.72c3.5,2.88,7.53,4.04,11.91,4.34.76.03,1.49-.13,2.23-.21,3.01-.34,5.74-1.41,8.27-3.03.88-.56,1.03-1.38.42-2.21-1.19-1.61-2.35-3.22-3.42-4.91-.73-1.16-1.31-1.3-2.27-.65-1.18.79-2.42,1.27-3.86,1.49-3.56.53-6.49-.46-8.66-3.31-2.64-3.46-2.79-7.42-.8-11.07,2.72-4.97,8.64-6.01,13.18-3.2,1.26.78,1.43.75,2.26-.45,1.16-1.67,2.34-3.33,3.53-4.97.49-.68.58-1.39-.08-1.88-1.71-1.26-3.64-2.16-5.67-2.71-2.44-.65-4.92-.82-7.47-.5-3.94.49-7.35,2.06-10.22,4.69-3.26,2.99-5.31,6.63-6.03,11.14-.39,2.43-.34,4.78.18,7.04.96,4.14,3.14,7.63,6.5,10.39Z"/><path class="cls-1" d="m456.68,59.03c.67,2.72,1.75,5.27,3.51,7.55,1.8,2.33,3.93,4.29,6.56,5.45,3.61,1.59,7.36,2.51,11.47,1.67,2.73-.56,5.18-1.54,7.52-2.92.85-.5.95-1.2.36-2.03-1.28-1.8-2.64-3.55-3.82-5.42-.57-.9-.97-.85-1.75-.34-2.53,1.65-5.26,2.18-8.22,1.32-4.36-1.27-6.72-5.53-6.42-9.77.21-3,1.32-5.48,3.74-7.32,1.68-1.28,3.62-1.89,5.69-1.77,1.88.11,3.7.61,5.24,1.86.6.49,1.21.27,1.63-.32,1.3-1.83,2.56-3.68,3.85-5.51.58-.82.4-1.54-.36-2.01-2.94-1.84-6.11-3.07-9.62-3.16-2.34-.06-4.6.29-6.87,1.02-4.13,1.34-7.36,3.84-9.71,7.36-2.09,3.13-3.25,6.67-3.11,10.53-.12,1.29.03,2.61.33,3.83Z"/><path class="cls-1" d="m335.73,36.91c-.85-.03-1.3.48-1.59,1.05-.18.35-.36.75-.48,1.13-1.09,3.52-2.66,6.85-3.91,10.3-1.27,3.51-2.64,6.99-3.99,10.47-1.56,4.03-3.14,8.06-4.73,12.08-.42,1.06-.22,1.42.91,1.46,2.52.09,5.03-.1,7.54-.21.47-.02.73-.28.88-.65.59-1.43,1.13-2.9,1.67-4.34.26-.7.54-.66,1.01-.66,3.33,0,6.66,0,9.98,0,2.23,0,2.18.02,3.01,2.13.39.97.5,2.08,1.26,2.89,0-7.97.01-15.95.02-23.92-.16-1.37-.86-2.55-1.33-3.81-.82-2.22-1.71-4.4-2.6-6.59-.34-.85-.86-1.37-1.92-1.32-1.91.09-3.84.07-5.75,0Zm3.14,11.96c1.12,3.52,2.24,7.04,3.38,10.59h-7.13c1.18-3.56,2.35-7.08,3.51-10.6.08,0,.16,0,.25,0Z"/><path class="cls-1" d="m413.05,36.93c-.76,0-1.52,0-2.28,0-1.88,0-3.76,0-5.64,0-.65,0-1.2-.05-.57.93.95,1.48,1.69,3.1,2.56,4.64,2.65,4.7,5.31,9.4,7.99,14.08.69,1.2,1.14,2.39,1.1,3.85-.11,3.83-.02,7.66-.05,11.5,0,.82.31,1.36,1.12,1.31,2.45-.16,4.9-.05,7.35-.05.85,0,1.13-.22,1.12-1.1-.04-3.87.02-7.74-.04-11.61-.02-1.39.21-2.6.96-3.82,1.81-2.96,3.47-6.03,5.2-9.04,1.87-3.26,3.75-6.51,5.65-9.75.44-.75.3-.96-.55-.96-2.97.03-5.93.05-8.9-.02-.65-.02-.95.31-1.14.71-1.01,2.13-1.95,4.29-2.94,6.43-.92,1.98-1.87,3.94-2.8,5.9-.53-.21-.4-.57-.53-.81-1.77-3.41-3.37-6.91-4.92-10.43-.72-1.65-.84-1.77-2.69-1.77Z"/><path class="cls-1" d="m421.95,94.66c1.16,0,1.6-.46,1.6-1.6,0-1.88,0-3.76,0-5.64,0-1.33-.1-1.43-1.41-1.44-4.3,0-8.61,0-12.91,0s-8.68,0-13.02,0c-1.03,0-1.52.43-1.53,1.45-.03,1.84-.02,3.69,0,5.53.01,1.05.7,1.7,1.73,1.7,2.42,0,4.85.04,7.27-.02.81-.02,1,.19,1,1-.03,8.24-.02,16.49-.02,24.73,0,.25.03.51-.01.76-.17,1.09.19,1.53,1.29,1.53,2.06,0,4.12,0,6.19,0,1.51,0,2.09-.58,2.09-2.11,0-8.28.01-16.56-.02-24.84,0-.8.13-1.11,1.03-1.08,2.24.08,4.49.03,6.73.02Z"/><path class="cls-1" d="m641.32,36.93c-4.34,0-8.69,0-13.03,0s-8.83.02-13.24-.02c-.92,0-1.23.43-1.24,1.2-.03,1.95-.02,3.91,0,5.86,0,.85.39,1.25,1.33,1.23,2.17-.06,4.34-.02,6.51-.02q1.71,0,1.71,1.66c0,8.35,0,16.71,0,25.06,0,1.08.38,1.34,1.47,1.31,2.21-.05,4.41-.06,6.62-.01,1.41.03,1.46.05,1.46-1.39,0-8.46.02-16.92-.02-25.39,0-1.04.31-1.29,1.3-1.26,2.31.07,4.63.02,6.95.02,1.36,0,1.77-.4,1.77-1.76,0-1.63,0-3.25,0-4.88,0-1.21-.39-1.6-1.58-1.61Z"/><path class="cls-1" d="m431.06,122.66c2.28,0,4.56,0,6.84,0,.83,0,1.3-.32,1.3-1.26-.02-11.31,0-22.63-.01-33.94,0-1.03-.45-1.47-1.48-1.48-2.13,0-4.27,0-6.4,0-1.49,0-1.67.18-1.67,1.75,0,5.49,0,10.99,0,16.48s0,11.28,0,16.92c0,1.09.4,1.53,1.43,1.53Z"/><path class="cls-1" d="m606.58,36.91c-2.28.06-4.56.05-6.84,0-1.03-.02-1.4.34-1.39,1.38.03,5.6.02,11.21.02,16.81v3.8c0,4.3.02,8.61-.02,12.91,0,1.05.3,1.43,1.41,1.39,2.2-.09,4.41-.03,6.62-.03q1.55,0,1.55-1.53c0-9.51,0-19.02,0-28.53,0-1.63,0-3.25,0-4.88,0-.89-.33-1.35-1.34-1.32Z"/><path class="cls-1" d="m348.45,73.39c2.48,0,4.96.02,7.43-.2.8-.07.9-.44.69-1.06-.39-1.17-1-2.28-1.36-3.43-.96-3.09-2.32-6.02-3.42-9.06-.99-2.76-2.06-5.51-3.21-8.21-.4-.94-.53-2.01-1.25-2.8,0,7.97-.01,15.95-.02,23.92-.04.85.55.84,1.14.84Z"/><path class="cls-1" d="m401.36,25.21c.01-4.66.04-9.32.02-13.98,0-.77.12-1.07.98-1.02,1.44.08,2.9-.1,4.33.05,4.31.43,7.98,2.88,8.18,8.29.1,2.63-.8,4.81-2.64,6.65-2.04,1.64-4.38,2.17-6.94,1.97-.61-.05-1.23,0-1.84,0q-1.98,0-2.09-1.95c-.92,0-1.83,0-2.75,0-.01,1.15,0,2.31-.05,3.46-.03.66.21.91.88.89,1.05-.04,2.1.03,3.14-.02,2.15-.09,4.31.26,6.44-.21,2.66-.59,4.87-1.91,6.51-4.11.67-.67,1.01-1.55,1.36-2.39.68-1.6,1.04-3.33.93-5.03-.08-1.3-.55-2.6-1.19-3.85-1.85-3.64-4.95-5.4-8.76-5.83-2.79-.31-5.63-.05-8.45-.07-.68,0-.87.26-.87.9.03,5.42.03,10.84.05,16.26.92,0,1.83,0,2.75,0Z"/><path class="cls-1" d="m364.23,25.22c1.13,1.79,2.72,3.07,4.64,3.88,2.91,1.23,5.88,1.23,8.82.02,1.96-.8,3.48-2.12,4.62-3.89,1.35-1.42,1.87-3.26,2.1-5.07.37-2.94-.42-5.73-2.19-8.11-2.73-3.65-6.43-4.87-10.93-4.22-5.1.74-9.56,6.14-9.01,11.56.22,2.13.74,4.08,1.96,5.84Zm1.2-9.1c.67-2.88,2.57-4.74,5.22-5.84,2.77-1.15,7.42.42,9.25,2.91,1,1.36,1.71,2.89,1.86,4.47.18,1.9-.17,3.86-1.13,5.59-.39.7-.94,1.3-1.42,1.95-3.11,3.2-8.57,3.21-11.74,0-2.38-2.65-2.82-5.74-2.04-9.09Z"/><path class="cls-1" d="m358.95,117.9c-1.28-1.87-2.57-3.74-3.88-5.59-.4-.57-.94-.71-1.56-.27-1.86,1.28-3.94,1.89-6.19,1.99-.76-.29-1.6-.31-2.34-.57-4.63-1.65-7.11-6.46-6.13-11.11,1.03-4.87,4.29-7.39,8.47-7.71,2.3-.16,4.35.51,6.24,1.8.66.45,1.15.19,1.59-.45,1.15-1.68,2.34-3.33,3.54-4.97.89-1.21.8-1.79-.54-2.64-3.3-2.11-6.9-3.12-10.83-2.79-1.77-.19-3.41.27-5.07.81-3.58,1.16-6.59,3.11-8.92,6.08-1.45,1.85-2.72,3.86-3.32,6.11-.77,2.88-1.26,5.81-.55,8.88.54,2.38,1.23,4.64,2.52,6.68,1.85,2.93,4.25,5.27,7.41,6.83,2.52,1.24,5.1,2.1,7.93,2.08,4.08.19,7.81-.87,11.19-3.18.89-.61,1.04-1.12.45-1.98Z"/><path class="cls-1" d="m288.05,9.37c-.08-.68.13-1.34-1-1.33-5.07.05-10.13.05-15.2,0-1.02-.01-.75.6-.75,1.11,0,.52-.27,1.16.76,1.11,1.73-.09,3.47.03,5.21-.05.83-.03,1,.2,1,1-.03,4.66,0,9.33.02,13.99-.01.82-.03,1.65-.03,2.47,0,1.93,0,1.91,1.89,1.89.54,0,.75-.12.72-.7-.06-1.22-.04-2.43-.05-3.65.01-4.7.04-9.4.02-14.1,0-.7.16-.91.88-.89,1.84.05,3.69,0,5.54.03.66.01,1.1,0,1-.88Z"/><path class="cls-1" d="m299.99,9.29c-.09.56-.1,1.01.78.97,1.88-.08,3.76.03,5.64-.05.86-.04.98.25.98,1.02-.02,4.66,0,9.32.02,13.98-.01.9-.03,1.81-.03,2.71,0,1.7,0,1.68,1.73,1.65.66-.01.91-.23.88-.89-.05-1.15-.03-2.31-.05-3.47.01-4.7.08-9.39-.01-14.09-.02-.87.19-.91.86-.9,1.73.03,3.47,0,5.21.02.59,0,1.08.04.95-.81-.1-.63.26-1.4-.93-1.39-5.1.04-10.19.04-15.29,0-1.16-.01-.65.76-.72,1.24Z"/><path class="cls-1" d="m535.87,33.72c1.58-.14,3.2-.2,4.77.01,1.11.15,1.53-.31,1.91-1.11.37-.79.74-1.58,1.08-2.37.41-.95.84-1.9,1.2-2.87.36-.99-.02-1.5-1.08-1.51-.94-.01-1.88,0-2.82,0s-1.96-.05-2.93.02c-.75.05-1.27.34-1.59,1.21-.3.82-.43,1.69-.66,2.51-.3,1.06-.68,2.13-.79,3.25-.07.67.06.94.91.87Z"/><path class="cls-1" d="m326.65,138.5h0c-.96-2.1-1.93-4.19-2.89-6.29-.16-.36-.3-.7-.82-.67-.52.04-1.01.15-1.23.65-.95,2.1-1.87,4.2-2.8,6.31.58,0,1.15,0,1.73,0,.87-1.36,1.3-2.94,2.12-4.51.71,1.59,1.37,3.04,2.02,4.5.37.86.74,1.72,1.13,2.57.18.39.32.69-.31.69-2.08,0-4.16,0-6.33,0,.53-1.15,1.06-2.16,1.38-3.25h-1.73c-1.4,2.99-2.79,5.99-4.17,8.97.89.5,1.73.55,2.12-.42.38-.94,1-1.75,1.35-2.69.21-.58.56-.68,1.11-.67,2.31.03,4.63.05,6.94,0,.82-.02,1.1.43,1.29,1.06.27.91.64,1.77,1.08,2.6.48.9,1.33.57,1.88.38.64-.22.04-.74-.13-1.11-1.24-2.71-2.49-5.41-3.73-8.12Z"/><path class="cls-1" d="m497.79,145.52c-1.01-1.42-2.17-2.74-3.07-4.26,1.98-.79,3.22-1.41,3.71-2.76.42-.7.64-1.55.61-2.27-.07-2-2.11-3.92-4.2-4.24-2.54-.39-5.09-.16-7.64-.21-.53-.01-.92.18-.9.87.05,1.95.04,3.9.05,5.85-.01.68-.03,1.37-.03,2.05,0,2.06.03,4.12-.02,6.17-.03,1.13.83.99,1.45,1.08.87.13.48-.62.49-.97.05-1.55.01-3.1.03-4.66,0-.25-.16-.64.32-.64,1.3-.01,2.6,0,3.9-.01.32,0,.28.25.4.4,1.31,1.53,2.48,3.17,3.6,4.83.57.84,1.24,1.23,2.23,1.07.42-.07.77-.1.31-.63-.45-.53-.85-1.11-1.26-1.68Zm-8.12-5.69c-1.08.1-1.63-.16-1.44-1.33.01-1.37.02-2.75.04-4.12,0-.25-.16-.67.32-.64,1.97.1,3.97-.34,5.9.21,2.54.73,3.09,2.25,1.79,4.54-.75.93-1.81,1.23-2.92,1.3-1.23.07-2.47-.07-3.69.04Z"/><path class="cls-1" d="m516.75,146.82c.07-.5-.35-.76-.51-1.13-1.03-2.41-1.95-4.88-3.19-7.19-.73-2.24-1.8-4.34-2.76-6.48-.36-.79-1.83-.58-2.2.31-.88,2.06-1.99,4.03-2.68,6.17-.77,1.12-1.15,2.42-1.73,3.62-.78,1.62-1.59,3.22-2.17,4.93-.06.18-.35.3-.09.54.53.49,1.63.29,1.94-.4.36-.82.67-1.66.99-2.49.24-.63.55-1.02,1.36-.99,1.99.07,3.98.11,5.96-.01,1.26-.08,1.99.26,2.49,1.47.35.84.63,1.78,1.35,2.44.46.42,1.02.39,1.47.09.54-.36-.24-.57-.21-.84Zm-4.93-4.83c-1.81-.04-3.61-.05-5.42,0-.86.02-.87-.27-.55-.91.41-.84.88-1.65,1.12-2.57.59-1.27,1.15-2.56,1.77-3.81.09-.18.07-.6.42-.5.21.06.48.28.54.49.38,1.35,1.19,2.51,1.63,3.82.35.83.67,1.67,1.08,2.47.35.7.34,1.03-.58,1.01Z"/><path class="cls-1" d="m405.09,146.09c-2.64.02-5.28,0-7.92.02-.6,0-.81-.14-.78-.77.05-1.44.02-2.89.01-4.34,0-.51.08-.63.71-.6,2.42.1,4.84.03,7.27.05.8,0,.67-.53.72-1.04.05-.58-.16-.72-.72-.71-2.28.03-4.56.01-6.84.01-.39,0-.79.08-1.12-.23-.58,0-1.15,0-1.73,0-.01,2.82-.01,5.64-.05,8.45,0,.65.21.89.88.89,3.18-.02,6.37-.03,9.55,0,.77,0,.85-.35.9-.99.06-.78-.32-.77-.89-.77Z"/><path class="cls-1" d="m285,146.09c-2.57.02-5.13.01-7.7,0-.36,0-.81.16-.79-.52.04-1.55.02-3.11,0-4.66,0-.53.2-.51.7-.49,2.42.07,4.84.02,7.27.04.89,0,.67-.62.73-1.13.09-.72-.38-.61-.81-.61-2.31,0-4.63.01-6.94,0-.33,0-.73.21-.98-.21.01-1.45.07-2.89.02-4.34-.02-.7.17-.9.88-.89,2.6.05,5.21.01,7.82.02.47,0,.88-.03.88-.66,0-.63-.4-.66-.88-.65-3.26,0-6.51.02-9.77,0-.53,0-.67.15-.66.67.04,1.95.04,3.9.05,5.86-.01,2.89,0,5.78-.05,8.67-.01.65.27.67.77.67,3.15-.01,6.29-.01,9.44,0,.61,0,1.13.05,1.13-.86,0-.87-.45-.9-1.1-.89Z"/><path class="cls-1" d="m482.41,138.02c-.77-5.62-7.19-8.08-11.88-5.31-2.16,1.28-3.31,3.33-3.73,5.79-.11.59-.25,1.26-.19,1.77.39,3.19,1.75,5.83,4.96,7.03,2.49.93,4.96.84,7.28-.6,3.07-1.9,3.96-4.8,3.72-8.2-.06-.16-.15-.32-.17-.48Zm-3.33,6.22c-1.82,2.06-4.83,2.49-7.2,1.2-2.75-1.5-3.54-3.99-3.35-6.93.54-1.11.79-2.32,1.69-3.3,1.31-1.42,3.87-2.24,5.73-1.72,2.48.69,4.07,2.18,4.57,4.75.02.09.12.17.18.26.41,2.18-.2,4.14-1.62,5.74Z"/><path class="cls-1" d="m321.29,23.27c.11.67.2,1.45.81,1.95.04.28.1.52.25.79,1.73,3.15,6.31,4.5,9.62,3.78,2.79-.6,5.03-1.84,6.19-4.58.54-1.22.93-2.47.92-3.84-.03-3.9-.01-7.8-.01-11.7,0-1.73-.2-1.86-1.97-1.63-.45.06-.57.39-.55.62.31,2.65.08,5.31.12,7.97.04,2.92.16,5.86-1.25,8.58-1.32,1.54-3.01,2.3-5.02,2.39-2.26.1-4.08-.84-5.63-2.4-1.05-2.01-1.41-4.15-1.35-6.41.08-3.25-.01-6.51.05-9.76.02-.84-.23-1.1-1.01-.97-.25.04-.51.03-.76,0-.68-.07-.88.25-.86.89.12,4.77-.32,9.57.47,14.31Z"/><path class="cls-1" d="m298.47,139.96c-1.48-.77-3.1-1.23-4.76-1.46-.55-.28-1.14-.49-1.63-.85-1.59-1.17-1.45-2.17-.37-3.35.66-.72,1.59-.91,2.46-.97,1.58-.1,3.06.45,4.28,1.42.63.5.73.04.87-.28.16-.38.91-.7.09-1.25-2.01-1.34-4.13-2.05-6.54-1.44-3.62.92-4.77,4.46-2.84,6.72.55.33.93.82,1.54,1.14,1.67.87,3.57.89,5.27,1.64,1.08.48,1.72,1.21,1.83,2.35.08.79-1.04,1.94-2.11,2.25-2.28.66-4.35.08-6.08-1.42-.63-.55-.97-.3-1.32.06-.39.4-.61.88.06,1.36,2.58,1.83,5.36,2.56,8.43,1.5,1.64-.57,2.48-1.91,2.76-3.55.29-1.71-.39-3.08-1.93-3.87Z"/><path class="cls-1" d="m425.52,140.24c-1.56-1.1-3.39-1.4-5.2-1.74-.07-.22-.28-.15-.43-.22-.95-.41-1.89-.82-1.98-2.06-.14-1.94.94-2.61,2.82-2.88,1.54-.22,2.99.38,4.2,1.31.89.68,1-.24,1.34-.52.47-.38.18-.81-.25-1.06-2.31-1.33-4.73-2.07-7.36-1.02-2.81,1.12-3.94,4.28-2.02,6.46,1.11,1.12,2.52,1.63,4.03,1.96.98.22,1.97.39,2.89.85,1.26.63,1.73,1.43,1.51,2.73-.16.93-1.43,1.97-2.49,2.06-2.14.17-4.07-.3-5.69-1.77-.2-.18-.49-.37-.69-.25-1.03.59-.99,1.33,0,2.04,1.99,1.42,4.23,1.98,6.61,1.69,1.3-.16,2.5-.74,3.39-1.91.79-1.04.52-2.16.63-3.26.11-1.12-.47-1.8-1.3-2.39Z"/><path class="cls-1" d="m423.64,29.58c4.62-.05,9.25-.04,13.87,0,.72,0,1.13-.04,1.05-.95-.07-.75-.02-1.28-1.08-1.26-3.29.07-6.57.02-9.86.03-.73,0-1.65.31-2.13-.03-.59-.41-.08-1.41-.25-2.14.01-1.52.06-3.04.02-4.55-.02-.7.17-.9.88-.89,3.26.04,6.51-.03,9.77.05,1,.02.89-.49.88-1.11,0-.6.15-1.14-.87-1.12-3.29.08-6.58.01-9.88.04-.6,0-.8-.14-.78-.77.04-1.92.05-3.83,0-5.75-.02-.69.15-.9.88-.9,3.83.04,7.67,0,11.5.03.88,0,.9-.46.89-1.1,0-.63,0-1.11-.89-1.1-4.7.03-9.41.02-14.11,0-.66,0-.88.23-.88.89.03,5.42.03,10.84.05,16.27-.01,1.12.03,2.24-.05,3.35-.06.79.15,1.02.98,1.01Z"/><path class="cls-1" d="m262.44,29.77c2.65-.56,4.81-1.71,5.57-4.56.84-1.91-.31-4.83-2.34-5.97-2.34-1.31-5-1.66-7.5-2.49-1.25-.41-2.78-1.61-2.75-2.7.06-2,.81-3.4,2.4-3.79,2.75-.68,5.29-.07,7.55,1.57.68.5.96.3,1.27-.29.29-.56,1.27-.95.18-1.75-1.79-1.3-3.8-1.94-5.93-2.13-1.91-.17-3.75.18-5.45,1.25-1.36.86-2.02,2.13-2.57,3.52-.04,1.41-.08,2.8.72,4.09,1.29,2.08,3.46,2.66,5.56,3.22,1.51.4,3.04.71,4.48,1.34,1.85.81,2.45,2.22,1.81,4.12-.98,1.8-2.62,2.35-4.54,2.4-2.55.06-4.73-.87-6.7-2.4-.38-.7-.76-.7-1.14,0-.47.26-.73.72-1.05,1.12.45.88,1.31,1.29,2.1,1.74,2.59,1.47,5.32,2.35,8.35,1.71Z"/><path class="cls-1" d="m384.4,132.02c-2.12-.42-4.3-.21-6.45-.25-.66-.01-.9.22-.88.88.04,1.95.03,3.9.05,5.86h0c-.01,2.81-.02,5.63-.04,8.44,0,.37-.05.68.52.69,1.72.03,3.43.35,5.15.19,1.42-.13,2.81-.43,4.07-1.15,3.17-1.81,4.32-4.66,4.13-8.17-.43-3.71-3.56-5.9-6.53-6.49Zm4.25,9.57c-1,3.06-2.9,3.97-5.68,4.28-1.02.11-2.06,0-3.09.22-.93.21-1.35-.13-1.31-1.2.08-2.13,0-4.26,0-6.39,0,0,.07.02.07.02-.01-1.33-.02-2.66-.04-3.99,0-.45.08-.83.62-.79,1.87.12,3.74-.23,5.61.38,2.06.68,3.31,1.95,3.79,4.02.03.13.1.25.15.37,0,0,.07-.02.07-.02-.17,1.02.15,2.07-.18,3.09Z"/><path class="cls-1" d="m234.82,137.13c-.6-2.37-3.42-4.82-5.83-5.14-2.18-.28-4.37-.18-6.55-.22-.67-.01-.88.25-.87.9.04,1.95.03,3.9.05,5.84.56,0,1.11,0,1.67,0,.01-1.33.05-2.66.02-3.99-.01-.57.08-.85.74-.8,1.73.13,3.46-.16,5.19.35,1.91.56,3.1,1.79,3.84,3.54.12.28.18.6.26.9.74,2.29-.78,5.76-3.25,6.73-1.2.47-2.43.72-3.69.63-.81-.06-1.54.25-2.33.26-.63,0-.77-.2-.76-.79.02-2.28-.01-4.55-.02-6.83-.56,0-1.11,0-1.67,0-.01,2.82-.02,5.64-.04,8.46,0,.39,0,.65.54.67,1.76.06,3.51.33,5.27.19,2.03-.16,3.88-.82,5.43-2.21,2.16-1.92,2.72-4.37,2.41-7.12.19-.55-.28-.91-.4-1.38Z"/><path class="cls-1" d="m443.15,133.45c-1.86-1.61-4.1-2.23-6.39-1.81-3.76.69-6.1,3.06-6.88,6.87-.28,1.51.11,2.92.61,4.33,1.72,4.88,7.72,6.34,11.67,3.87,3.06-1.91,3.98-4.79,3.72-8.2-.31-2.01-1.16-3.71-2.73-5.06Zm-1.13,11.15c-1.85,1.76-4.24,2.04-6.56,1.02-2.34-1.04-3.43-3.08-3.65-5.59-.04-.5,0-1.01.02-1.51.49-.52.49-1.26.77-1.88,1.05-2.33,2.98-3.21,5.29-3.31,2.64-.11,5.44,1.91,5.87,4.71.03.16.16.31.24.46.34,2.36-.3,4.51-1.98,6.1Z"/><path class="cls-1" d="m361.9,132.24c-2.75-1.22-5.48-.9-7.96.85-1.86,1.32-2.82,3.24-3.33,5.41.58,0,1.15,0,1.73,0,.6-.69.57-1.65,1.13-2.4,1.48-2.02,3.45-3.09,5.87-2.76,2.43.33,4.22,1.75,4.93,4.25.08.3.17.6.25.9.15,1.11.35,2.21-.05,3.32-1.17,3.18-3.65,4.68-7.02,4.27-1.93-.24-4.16-2.47-4.73-4.35-.33-1.08-.45-2.13-.37-3.23h-1.73c-.01,1.23,0,2.41.35,3.66,1.45,5.27,7.63,7.24,11.93,4.51,2.97-1.88,4.14-4.7,3.73-8.18-.38-2.98-2.04-5.08-4.71-6.26Z"/><path class="cls-1" d="m463.04,138.5c.01-1.97,0-3.95.05-5.92.02-.85-.55-.6-.94-.57-.4.03-1.07-.38-1.04.57.05,1.97.03,3.95.05,5.92-.13,1.85.1,3.73-.15,5.73-1.65-2.05-3.15-3.89-4.64-5.74h0c-.52-.67-1.02-1.35-1.55-2-1.13-1.38-2.28-2.73-3.4-4.12-.48-.59-1.13-.46-1.68-.32-.55.14-.33.73-.33,1.13,0,1.77.02,3.54.03,5.31-.01,2.86-.02,5.71-.04,8.57,0,1.14.87.66,1.42.76.62.12.78-.16.77-.76-.04-2.86-.04-5.71-.05-8.57v-3.47c.1-.02.21-.04.31-.05.91,1.18,1.82,2.35,2.74,3.53,1.31,2.13,2.99,3.99,4.44,6.02.74,1.03,1.55,2.01,2.34,3.01.41.52,1.02.35,1.51.26.44-.09.2-.62.2-.94,0-2.78-.01-5.57-.02-8.35Z"/><path class="cls-1" d="m263.81,146.1c-2.39,0-4.78-.02-7.16.02-.62,0-.78-.17-.77-.78.02-2.28,0-4.55-.02-6.83.01-1.97,0-3.95.05-5.92.02-.73-.42-.61-.83-.58-.4.03-.96-.27-.94.58.06,1.97.04,3.95.05,5.92-.01,2.82-.02,5.64-.04,8.46,0,.56.11.89.77.88,2.97-.02,5.93-.02,8.9,0,.87,0,.71-.57.77-1.1.09-.7-.32-.65-.78-.65Z"/><path class="cls-1" d="m314.74,132.86c0-.44.16-.9-.65-.89-3.69.05-7.38.05-11.07,0-.79,0-.67.43-.66.88,0,.44-.17.94.65.89,1.3-.07,2.6,0,3.91-.03.66-.02.9.22.89.88-.03,1.3.01,2.6.03,3.9-.01,2.82-.02,5.64-.04,8.46,0,.56-.02.96.76.9.64-.05,1.01-.12,1-.9-.05-2.82-.04-5.64-.05-8.46.01-1.37.05-2.75.02-4.12,0-.52.13-.68.66-.67,1.3.04,2.61-.04,3.91.03.8.04.66-.44.65-.88Z"/><path class="cls-1" d="m242.08,133.27c2.56.07,5.12.02,7.68.03.45,0,.72-.02.72-.61,0-.57-.17-.72-.73-.71-3.36.03-6.71.02-10.07,0-.51,0-.77.05-.75.68.06,1.94.04,3.89.05,5.84h0c-.01,2.89,0,5.78-.05,8.66-.01.64.26.68.76.68,3.32-.01,6.65-.03,9.97.01.71,0,.82-.22.82-.85,0-.64-.07-.94-.85-.92-2.56.06-5.13,0-7.7.04-.68.01-.85-.17-.83-.84.05-1.33.06-2.67,0-4.01-.03-.67.15-.85.83-.83,2.2.05,4.41,0,6.61.03.81.01.8-.44.85-1.04.05-.69-.28-.73-.82-.72-2.17.02-4.34.02-6.5,0-.33,0-.73.21-.98-.21.01-1.41.07-2.81.02-4.22-.03-.77.13-1.04.98-1.02Z"/><path class="cls-1" d="m397.17,133.28c2.64.03,5.28.02,7.92,0,.35,0,.91.27.88-.53-.02-.65-.32-.78-.89-.77-3.18.01-6.37.02-9.55,0-.66,0-.9.23-.88.88.04,1.88.03,3.76.05,5.64.58,0,1.15,0,1.73,0,0-1.48.01-2.96-.04-4.44-.02-.62.18-.78.78-.77Z"/><path class="cls-1" d="m246.57,29.59c.49-.11.66-.19.64-.69-.04-1.22-.03-2.45-.05-3.68-1.81,0-3.61,0-5.42,0,.6.83,1.14,1.7,1.81,2.47.79.92,1.33,2.26,3.02,1.89Z"/><path class="cls-1" d="m13.96,9.92c0-.25-.02-.51-.02-.76-.07-.02-.13,0-.19.03-4.29-.01-8.58-.02-12.87-.05-.48,0-.6.15-.6.61.03,5.15.03,10.31.05,15.46-.01.25-.03.5-.03.76,0,18.38,0,36.76,0,55.13,0,.25.02.5.03.76-.01.4-.03.79-.03,1.19,0,5.38-.01,10.77-.02,16.15-.43,1.22-.16,2.48-.18,3.71-.01.8-.26,1.64.18,2.41,0,12.62.02,25.23,0,37.85,0,.81.19,1.01,1,1,4.16-.04,8.32,0,12.48,0,.01.12.07.19.2.18,0-.22.02-.43.02-.65,0-20.36,0-40.73,0-61.09,0-.25-.02-.5-.03-.76.01-.29.03-.58.03-.87,0-23.69,0-47.38,0-71.07Z"/><path class="cls-1" d="m222.17,29.57c.54,0,.75-.12.72-.7-.06-1.22-.04-2.43-.05-3.65.01-5.45.02-10.9.04-16.35,0-.3-.07-.55-.25-.79-.78,0-1.56,0-2.34,0,0,5.71,0,11.42.01,17.14-.01.82-.03,1.65-.03,2.47,0,1.93,0,1.91,1.89,1.89Z"/><path class="cls-1" d="m230.85,29.57c.54,0,.75-.12.72-.7-.06-1.22-.04-2.43-.05-3.65v-13.19c2.02,2.59,3.85,4.93,5.68,7.29,1.52,1.96,3.03,3.94,4.54,5.91,1.81,0,3.61,0,5.42,0,.02-.22.05-.43.07-.65-.01-.4-.03-.79-.03-1.19,0-4.73-.04-9.46.03-14.19.01-1.01-.3-1.18-1.2-1.13-1.44.07-1.44.02-1.44,1.41,0,3.25,0,6.5,0,9.75v5.86c-.23-.2-.35-.28-.42-.38-1.47-1.97-2.89-3.97-4.42-5.9-2.43-3.06-4.76-6.19-7.12-9.3-1.16-1.52-2.23-1.8-3.67-1.18,0,5.63.02,11.27.03,16.9h0c-.01.82-.03,1.65-.03,2.47,0,1.93,0,1.91,1.89,1.89Z"/><path class="cls-1" d="m293.57,29.56c.32-.04.65-.04.98,0,.53.06.68-.15.66-.66-.05-1.23-.03-2.46-.05-3.68.01-.65.03-1.3.03-1.95,0-4.77-.01-9.55.02-14.32,0-.7-.16-.99-.88-.88-.28.04-.58.03-.87,0-.66-.06-.89.22-.88.88.03,5.42.03,10.85.05,16.27-.01,1.12.01,2.24-.05,3.36-.04.76.23,1.07,1,.99Z"/><path class="cls-1" d="m343.78,10.25c1.18-.04,2.36-.03,3.54-.05.72.01,1.44.09,2.15.02.87-.09,1.14.14,1.13,1.08-.05,4.64,0,9.28,0,13.91-.01.82-.03,1.65-.03,2.47,0,1.93,0,1.91,1.89,1.89.54,0,.75-.12.72-.7-.06-1.22-.04-2.43-.05-3.65.01-4.7.04-9.4.02-14.1,0-.7.16-.92.88-.89,1.74.06,3.47-.02,5.21.03.7.02.98-.16.88-.88-.08-.6.23-1.33-.88-1.32-3.98.05-7.96.04-11.94.05-.89-.01-1.79-.03-2.68-.03-1.54,0-1.52,0-1.46,1.57.02.45.11.63.6.61Z"/><path class="cls-1" d="m193.33,1c.04,2.21.04,4.42.05,6.63v2.82c-.01,4.49-.02,8.98-.04,13.47,0,.43-.02.86-.03,1.29.01.25.03.5.03.76,0,18.38,0,36.76,0,55.15,0,.25-.02.5-.03.75l.07-.02c-.01.4-.03.79-.03,1.19,0,20.04,0,40.08,0,60.13,0,.4-.02.79-.02,1.19h-.1s-.09-.03-.09-.03c-.03,0-.07.02-.11.02-3.6.08-7.21.09-10.8.26-2.97.14-5.94.3-8.9.45-2.37.13-4.72.65-7.11.58-1.07.5-2.24.27-3.35.43-3.74.53-7.49.94-11.22,1.51-4.58.69-9.12,1.59-13.62,2.67-2.43.59-4.87,1.16-7.18,2.16-.94.59-1.99.85-3.05,1.09-.5.43-1.1.59-1.74.65h0c-.4.26-.8.52-1.23.71-.43.19-.89.32-1.39.32-.13.09-.27.18-.4.27-1.34.8-2.69,1.59-4.14,2.17-.23.43-.64.56-1.08.65-.58.71-1.38,1.09-2.19,1.47-.25.2-.51.34-.85.22-.57-.93-.21-1.99-.39-2.98-.33-1.82-.38-3.69-.48-5.54-.22-3.81-.45-7.63-.86-11.42-.07-.64,0-1.3.02-1.94,0-1.95,0-3.9-.03-5.86-.01-.74.3-1,.99-.79,2.45.72,4.94,1.29,7.45,1.76,2.88.53,5.79.47,8.69.15,4.48-.48,8.66-1.96,12.63-3.99,2.59-1.33,5-2.99,7.31-4.78,2.25-1.74,4.3-3.69,6.19-5.79,3.3-3.67,6.09-7.69,8.07-12.26.67-1.56,1.08-3.21,1.86-4.71.23-1.14.48-2.28.68-3.43.18-1.08.3-2.18.45-3.27,0-1.38,0-2.75,0-4.13-.01-.25-.05-.49-.03-.74.05-.97-.29-1.66-1.3-1.91-1.5-.26-2.95-.7-4.46-.92-2.83-.42-5.64-.45-8.46-.06-2.29.31-4.54.78-6.75,1.46-2.24.69-4.39,1.54-6.52,2.54-2.32,1.09-4.55,2.33-6.7,3.71-3.83,2.45-7.21,5.45-10.24,8.81-3.06,3.39-5.68,7.12-7.79,11.18-.67,1.29-1.38,2.56-2.04,3.85-.19.37-.38.76-.84.69-.48-.07-.2-.53-.27-.81-1.02-3.76-1.27-7.64-1.72-11.49-.45-3.83-.8-7.67-1.11-11.52-.23-2.93-.5-5.85-.64-8.78-.08-1.57-.25-3.13-.38-4.69-.1-2.3-.2-4.6-.31-6.9-.12-2.41-.13-4.82-.16-7.23-.02-.92.24-1.33,1.28-1.31,3.73.06,7.46.13,11.18,0,7.05-.25,12.32-3.47,15.79-9.68,2.01-3.6,3.25-7.46,4.04-11.47.38-1.96.34-3.98.07-5.98-.19-1.4-1.35-1.11-2.13-1.22-1.95-.27-3.93-.51-5.88-.44-5.22.19-10.08,1.54-14.25,4.92-4.81,3.9-8.02,8.92-10.61,14.45-.78,1.67-1.57,3.33-2.35,5-.12.26-.18.6-.65.57-.43-.02-.44-.35-.54-.57-.85-1.87-1.59-3.78-2.49-5.62-2.37-4.83-5.14-9.4-9.24-13-3.33-2.92-7.19-4.72-11.61-5.39-3.58-.55-7.11-.19-10.66.24-.81.1-.89.68-1.01,1.27-.45,2.11-.19,4.19.19,6.27.65,3.55,1.83,6.9,3.44,10.13,2.25,4.53,5.64,7.84,10.44,9.52,1.74.61,3.58.98,5.43,1.01,3.91.05,7.81,0,11.72.03.33,0,.85-.26.93.4.24.13.19.36.2.57.14,3.48-.19,6.95-.23,10.42,0,.12-.12.23-.19.35-.02,1-.04,2.01-.06,3.01-.24,2.74-.23,5.5-.58,8.24-.22,1.74-.36,3.49-.45,5.24-.15,3.07-.52,6.12-.83,9.18-.29,2.8-.55,5.62-.94,8.41-.28,2.04-.46,4.1-1.05,6.09-.1.34-.03.76-.53.8-.46.04-.44-.41-.57-.66-1.47-2.84-2.97-5.66-4.73-8.34-2.57-3.91-5.52-7.51-9.01-10.63-3.22-2.87-6.72-5.36-10.56-7.4-4.11-2.18-8.39-3.85-12.92-4.77-4.23-.86-8.49-1.08-12.78-.15-1.18.26-2.32.63-3.48.92-.53.13-.76.41-.82.96-.41,3.56-.1,7.06.74,10.52,1.46,6.04,4.31,11.37,8.16,16.23,3.38,4.26,7.33,7.88,11.84,10.86,4.66,3.08,9.77,5.24,15.31,6.1,3.87.6,7.79.55,11.65-.42,1.82-.46,3.66-.85,5.49-1.27.38-.22.79-.52.91.23.38,2.34.18,4.7.15,7.06,0,.05-.1.09-.15.14.09,3.95-.48,7.87-.69,11.8-.16,2.93-.42,5.85-.64,8.77-.01.17.03.37-.22.41h-.63c-.92-.4-1.72-.95-2.4-1.68-.44-.08-.85-.22-1.09-.65-.71-.25-1.44-.48-1.96-1.08-.74-.35-1.62-.39-2.19-1.09-2.96-1.68-6.19-2.69-9.42-3.68-2.6-.8-5.23-1.5-7.89-2.08-3.19-.69-6.37-1.38-9.6-1.86-2.79-.41-5.56-.99-8.36-1.25-2.23-.21-4.43-.6-6.67-.72-3.88-.22-7.73-.74-11.62-.89-3.26-.13-6.52-.28-9.78-.43-2.26-.11-4.53-.09-6.79-.2l-.09.03h-.1c0-.3-.02-.58-.02-.87,0-44.49,0-88.97,0-133.46,0-.29.02-.58.02-.87.06,0,.12-.02.18-.04,0-2.71.03-5.42,0-8.14,0-.72.11-.99.91-.97,2.68.06,5.36-.1,8.03.05,3.29.19,6.6.19,9.88.43,2.21.16,4.43.24,6.62.45,3.14.3,6.27.64,9.4.99,2.92.33,5.82.77,8.72,1.17,3.09.43,6.16,1.04,9.2,1.73,4.25.96,8.47,2.06,12.61,3.43,5.24,1.74,10.31,3.89,15.01,6.78,2.74,1.69,5.32,3.67,7.5,6.09.63.7.97,1.08,1.9.04,3.04-3.4,6.85-5.82,10.86-7.96,3.23-1.73,6.59-3.15,10.04-4.36,3.06-1.07,6.15-2.03,9.29-2.79,3.75-.9,7.5-1.72,11.3-2.4,3.46-.62,6.95-1.12,10.42-1.66,2.35-.36,4.74-.45,7.11-.69.71-.07,1.39-.32,2.11-.17,2.3-.29,4.62-.35,6.92-.5,3.22-.22,6.44-.25,9.65-.45,3.46-.22,6.9-.09,10.36-.13.46.22.2.62.2.93Z"/><path class="cls-1" d="m347.33,137.39c0-.22.06-.47-.02-.64-1.22-2.58-3.31-4.14-6.03-4.72-2.18-.46-4.43-.25-6.65-.25-.67,0-.99.33-.98.99.02,1.91.03,3.82.04,5.74-.01,2.45-.03,4.91-.04,7.36,0,1.64,0,1.64,1.63,1.76.11,0,.22,0,.32,0,3.27.55,6.42.32,9.15-1.77,1.45-1.11,2.49-2.57,2.59-4.51.63-.88.4-1.88.39-2.85.12-.46-.08-.8-.39-1.11Zm-2.15,4.88c-.82,1.98-2.36,2.87-4.3,3.41-1.33.37-2.69,0-4.01.4-.74.23-1.11-.06-1.08-.98.07-2.2,0-4.4,0-6.6h0c.01-1.37.02-2.75.04-4.12,0-.3-.11-.68.43-.66,1.68.07,3.39-.23,5.03.25,1.95.57,3.42,1.73,4.05,3.76.08.27.11.55.3.77-.13,1.26.08,2.52-.44,3.77Z"/></g></svg>